<svg width="57" height="81" viewBox="0 0 57 81" fill="none" xmlns="http://www.w3.org/2000/svg">
<path d="M12.224 80.96C10.688 80.96 8.96 80.6613 7.04 80.064C5.07733 79.4667 3.41333 78.72 2.048 77.824C0.682667 76.9707 0 76.16 0 75.392C0 74.9653 0.192 74.624 0.576 74.368C0.96 74.112 1.51467 74.0053 2.24 74.048C4.544 75.712 6.31467 76.7573 7.552 77.184C8.78933 77.6533 10.432 77.888 12.48 77.888C16.2347 77.888 19.2853 76.736 21.632 74.432C23.9787 72.1707 25.8347 69.0773 27.2 65.152C28.096 62.592 29.0133 58.4747 29.952 52.8C30.8907 47.0827 31.9573 40.0853 33.152 31.808L34.112 25.472L28.16 25.6C27.3067 25.5147 26.88 25.1307 26.88 24.448C26.88 23.8507 27.072 23.4453 27.456 23.232C27.8827 22.976 28.5653 22.8267 29.504 22.784C30.4853 22.6987 32.2347 22.656 34.752 22.656C36.0747 17.3227 37.3333 13.0987 38.528 9.984C39.7653 6.86933 41.3867 4.43733 43.392 2.688C45.3973 0.896 48 0 51.2 0C54.7413 0 56.512 0.639999 56.512 1.92C56.512 2.56 56.0853 3.17867 55.232 3.776C54.08 3.56267 52.3733 3.456 50.112 3.456C47.1253 3.456 44.544 5.248 42.368 8.832C40.2347 12.3733 38.7413 16.9813 37.888 22.656L46.016 22.72C47.2107 22.72 47.808 23.1253 47.808 23.936C47.808 24.96 46.784 25.5147 44.736 25.6H37.248C36.6933 28.672 35.584 35.7547 33.92 46.848L32.128 58.432C30.6347 67.5627 27.6693 73.9413 23.232 77.568C20.544 79.8293 16.8747 80.96 12.224 80.96Z" fill="white"/>
</svg>
